<svg id="Layer_1" data-name="Layer 1" xmlns="http://www.w3.org/2000/svg" xmlns:xlink="http://www.w3.org/1999/xlink" viewBox="0 0 246.5 97.6"><defs><linearGradient id="linear-gradient" x1="63.32" y1="73.86" x2="105.32" y2="-18.14" gradientTransform="matrix(1, 0, 0, -1, 0, 100)" gradientUnits="userSpaceOnUse"><stop offset="0" stop-color="#86b560"/><stop offset="1" stop-color="#336f4a"/></linearGradient><linearGradient id="linear-gradient-2" x1="104.13" y1="92.49" x2="146.13" y2="0.49" xlink:href="#linear-gradient"/><linearGradient id="linear-gradient-3" x1="147.35" y1="80.35" x2="141.81" y2="74.14" xlink:href="#linear-gradient"/><linearGradient id="linear-gradient-4" x1="93.21" y1="87.5" x2="135.21" y2="-4.5" xlink:href="#linear-gradient"/><linearGradient id="linear-gradient-5" x1="120.63" y1="100.02" x2="162.63" y2="8.02" xlink:href="#linear-gradient"/><linearGradient id="linear-gradient-6" x1="99.12" y1="90.2" x2="141.12" y2="-1.8" xlink:href="#linear-gradient"/></defs><title>Artboard 1</title><path d="M52.5,89.3H156.3a8.81,8.81,0,0,0,1.7-.2,9.85,9.85,0,0,0,1.7.2H219a8,8,0,0,0,0-16h-6.9a8,8,0,0,1,0-16h21.7a8,8,0,0,0,0-16H208.7a8,8,0,1,0,0-16h-73a8,8,0,0,0,0-16H70.8a8,8,0,0,0,0,16H25.1a8,8,0,0,0,0,16H53.6a8,8,0,1,1,0,16H8a8,8,0,0,0,0,16H52.5a8,8,0,0,0,0,16Zm186,0a8,8,0,1,0-8-8,8,8,0,0,0,8,8Z" fill="#86b560" opacity="0.25" style="isolation:isolate"/><path d="M85.6,96.2c-13.9,0-25.1-11-25.1-24.5S71.7,47.2,85.6,47.2a10.87,10.87,0,0,1,1.8.1,40.2,40.2,0,0,1-.6-6.9A38.82,38.82,0,0,1,162.4,28c1.2-.1,2.5-.2,3.7-.2,19.2,0,34.8,15.3,34.8,34.2A34.45,34.45,0,0,1,169,96.2H104.5m-5.2-.1Z" fill="#fff"/><path d="M97.8,94.7H92.7a1.4,1.4,0,1,0,0,2.8h5.1a1.4,1.4,0,1,0,0-2.8Z" fill="url(#linear-gradient)"/><path d="M202.3,61.9a36,36,0,0,1-31.9,35.4v.2H104.5a1.4,1.4,0,1,1,0-2.8h64.4a33.1,33.1,0,0,0,30.6-32.8c0-18.1-14.9-32.8-33.4-32.8-1.2,0-2.4.1-3.6.2l-1.1.1-.4-1.1A37.37,37.37,0,0,0,88.8,46.9l.3,1.8-1.8-.1a9.15,9.15,0,0,0-1.7-.1A23.46,23.46,0,0,0,61.9,71.7c0,12.8,10.6,23.1,23.7,23.1a1.4,1.4,0,0,1,0,2.8,26,26,0,1,1,0-52h.1a40.21,40.21,0,0,1,77.6-19.2,25.28,25.28,0,0,1,2.8-.1C186,26.3,202.3,42.2,202.3,61.9Z" fill="url(#linear-gradient-2)"/><path d="M113.7,9.8c0,36.8,33.1,67.1,75.8,71.2a32.74,32.74,0,0,1-23,11.7H89.9c-9.3,0-24.8-3.9-24.8-21.1S77.2,50.5,89.9,50.5a8.6,8.6,0,0,1,1.6.1,59,59,0,0,1-.6-5.9C90.1,31.1,96,13.9,113.7,8.3Z" fill="#86b560" opacity="0.4" style="isolation:isolate"/><path d="M152.3,31.7a1.47,1.47,0,0,1-1.4-1.1,20.47,20.47,0,0,0-14.3-14.2,1.39,1.39,0,1,1,.7-2.7,23.48,23.48,0,0,1,16.4,16.2,1.47,1.47,0,0,1-1,1.8h-.4Z" fill="url(#linear-gradient-3)"/><path d="M111.8,61.1c-5.2,0-9.4-4-9.4-8.8a1.4,1.4,0,0,1,2.8,0h0a6.58,6.58,0,0,0,13.1,0,1.42,1.42,0,0,1,1.5-1.3,1.49,1.49,0,0,1,1.3,1.3C121.3,57.1,117,61.1,111.8,61.1Z" fill="url(#linear-gradient-4)"/><path d="M144.9,61.1c-5.2,0-9.4-4-9.4-8.8A1.42,1.42,0,0,1,137,51a1.49,1.49,0,0,1,1.3,1.3,6.58,6.58,0,0,0,13.1,0,1.4,1.4,0,0,1,2.8,0h0C154.4,57.1,150.1,61.1,144.9,61.1Z" fill="url(#linear-gradient-5)"/><path d="M136.4,74.8H119.9a1.4,1.4,0,1,1-.2-2.8h16.7a1.4,1.4,0,0,1,.2,2.8Z" fill="url(#linear-gradient-6)"/><path d="M59.5,5.2H45.9V7.9h9.6L45.1,20.6v2.6H59.8V20.5H49.1L59.5,7.6ZM74.8,22.6H64.9v2h7l-7.6,9.2v1.9H75v-2H67.2l7.6-9.3Z" fill="#86b560" opacity="0.72" style="isolation:isolate"/><circle cx="172.4" cy="21" r="2.9" fill="#86b560" opacity="0.25" style="isolation:isolate"/><path d="M176.6,20.9a.76.76,0,0,1-.2-.4A11.88,11.88,0,0,0,163.5,9.7h-.1a.69.69,0,0,1-.8-.5.75.75,0,0,1,.5-.8h.1a11.48,11.48,0,0,1,5.2.6,13.06,13.06,0,0,1,7.7,6.3,13.86,13.86,0,0,1,1.5,5c0,.4-.2.7-.6.7A.6.6,0,0,1,176.6,20.9Z" fill="#86b560"/><path d="M174.1,18a5.23,5.23,0,0,0-1.6-.6,8.72,8.72,0,0,0-8.5-4.8c-.4,0-.7-.2-.7-.6s.2-.7.6-.7A10.07,10.07,0,0,1,174.1,18Z" fill="#86b560"/><path d="M169.8,18.6l-.1.1a5.84,5.84,0,0,0-5.6-3c-.4,0-.7-.2-.7-.6h0c0-.4.2-.7.6-.7h0a7.05,7.05,0,0,1,5.2,1.6,6.9,6.9,0,0,1,1.6,1.8A2.9,2.9,0,0,0,169.8,18.6Z" fill="#86b560"/><circle cx="166" cy="19.8" r="1.6" fill="#86b560"/><path d="M172,22.5a.27.27,0,0,1,.3-.3h0a.32.32,0,0,1,.3.3h0a.32.32,0,0,1-.3.3c-.1.1-.3-.1-.3-.3Zm.7-3c0,.2-.1.7-.2,1.4l-.1.8h-.2v-.8a11.45,11.45,0,0,1-.1-1.5.27.27,0,0,1,.3-.3C172.6,19.1,172.7,19.3,172.7,19.5Z" fill="#86b560"/></svg>