<svg width="27" height="33" viewBox="0 0 27 33" fill="none" xmlns="http://www.w3.org/2000/svg">
<path d="M25.3698 7.81095L18.536 0.734467V7.81095H25.3698ZM25.159 8.00255H21.7932V31.9655H25.159V8.00255Z" fill="url(#paint0_linear_236_3174)" fill-opacity="0.24"/>
<path d="M25.7147 32.7H0.966162C0.563799 32.7 0.231689 32.3743 0.231689 31.9655V0.734473C0.238076 0.325723 0.563799 0 0.966162 0H18.4849C18.6765 0 18.8681 0.0766406 19.0023 0.217148L26.2256 7.44053C26.3598 7.57465 26.4428 7.76625 26.4428 7.95785V31.9719C26.4428 32.3743 26.1171 32.7 25.7147 32.7ZM1.70063 31.2374H24.9802V8.25803L18.1848 1.46256H1.70063V31.2374Z" fill="url(#paint1_linear_236_3174)"/>
<path d="M25.7147 8.68594H18.4913C18.0889 8.68594 17.7568 8.36022 17.7568 7.95147V0.734473C17.7568 0.325723 18.0826 0 18.4913 0C18.9001 0 19.2258 0.325723 19.2258 0.734473V7.22338H25.7147C26.1171 7.22338 26.4492 7.5491 26.4492 7.95785C26.4492 8.3666 26.1171 8.68594 25.7147 8.68594Z" fill="url(#paint2_linear_236_3174)"/>
<defs>
<linearGradient id="paint0_linear_236_3174" x1="17.9831" y1="-5.04906" x2="30.8861" y2="-3.29543" gradientUnits="userSpaceOnUse">
<stop stop-color="#86B560"/>
<stop offset="1" stop-color="#336F4A"/>
</linearGradient>
<linearGradient id="paint1_linear_236_3174" x1="-1.88912" y1="-6.05556" x2="38.5031" y2="14.0541" gradientUnits="userSpaceOnUse">
<stop stop-color="#86B560"/>
<stop offset="1" stop-color="#336F4A"/>
</linearGradient>
<linearGradient id="paint2_linear_236_3174" x1="17.0535" y1="-1.60851" x2="29.1106" y2="5.88583" gradientUnits="userSpaceOnUse">
<stop stop-color="#86B560"/>
<stop offset="1" stop-color="#336F4A"/>
</linearGradient>
</defs>
</svg>
